<svg id="Calque_1" data-name="Calque 1" xmlns="http://www.w3.org/2000/svg" viewBox="0 0 711 374"><defs><style>.cls-1{fill:#fff;}</style></defs><polygon class="cls-1" points="117.12 294.96 105.19 267.94 96.23 267.94 84.61 295.27 73.98 259.67 58.11 259.67 77.12 317.25 88.13 317.25 100.47 286.89 113.08 317.25 124.2 317.25 143.53 259.67 127.66 259.67 117.12 294.96"/><path class="cls-1" d="M161.89,231.05a9.88,9.88,0,0,0-7,2.34,8.71,8.71,0,0,0,0,12.25q2.48,2.18,7,2.17a9.67,9.67,0,0,0,6.8-2.28,8.84,8.84,0,0,0,0-12.3A10,10,0,0,0,161.89,231.05Z"/><rect class="cls-1" x="154.22" y="259.67" width="15.33" height="57.57"/><path class="cls-1" d="M229.76,261.09a20.88,20.88,0,0,0-10.85-2.61,21.43,21.43,0,0,0-9,2,24.07,24.07,0,0,0-7.45,5.17,17.37,17.37,0,0,0-1.34,1.54l-.28-7.48H186.08v57.58h15.33v-34.5a10.64,10.64,0,0,1,.87-4.36,10.37,10.37,0,0,1,2.53-3.48,12,12,0,0,1,3.84-2.34,13.42,13.42,0,0,1,4.75-.81,10.59,10.59,0,0,1,5.51,1.08,7.39,7.39,0,0,1,3.23,3.81,17,17,0,0,1,1.08,6.53v34.07h15.34V282.09A33.92,33.92,0,0,0,236.34,269,16.07,16.07,0,0,0,229.76,261.09Z"/><path class="cls-1" d="M293.1,265.88a22.24,22.24,0,0,0-3-2.72,24.28,24.28,0,0,0-14.36-4.68,24,24,0,0,0-13.5,3.92,27.07,27.07,0,0,0-9.34,10.66,36.71,36.71,0,0,0,0,30.86,26,26,0,0,0,9.4,10.6,24.5,24.5,0,0,0,13.44,3.81,25.17,25.17,0,0,0,7.61-1.14A23.11,23.11,0,0,0,289.8,314a18.86,18.86,0,0,0,3.73-3.39l.32,6.61h14.48V236.71H293.1Zm-1.41,31.45a14.8,14.8,0,0,1-5,6,13.16,13.16,0,0,1-7.61,2.18,13,13,0,0,1-7.45-2.18,14.3,14.3,0,0,1-5-6,20.71,20.71,0,0,1-1.78-8.81,21.32,21.32,0,0,1,1.78-9,13.91,13.91,0,0,1,5-6,13.22,13.22,0,0,1,7.45-2.12,13.36,13.36,0,0,1,7.61,2.12,14.38,14.38,0,0,1,5,6,20.57,20.57,0,0,1,1.84,9A20,20,0,0,1,291.69,297.33Z"/><path class="cls-1" d="M376.68,253.31a4.12,4.12,0,0,1,2.05-2,8.28,8.28,0,0,1,3.46-.65,7.06,7.06,0,0,1,2.59.55,13.31,13.31,0,0,1,2.8,1.52l4.65-11.43a18.74,18.74,0,0,0-5.78-3.42,19.59,19.59,0,0,0-7.07-1.26,18.61,18.61,0,0,0-9.83,2.56A17.93,17.93,0,0,0,363,246a19.77,19.77,0,0,0-2.32,9.68v5.44h-8.64v13.17h8.64v43H376v-43h12.32V261.09H376v-4.46A7.71,7.71,0,0,1,376.68,253.31Z"/><path class="cls-1" d="M407.67,231.05a9.91,9.91,0,0,0-7,2.34,8.73,8.73,0,0,0-.06,12.25q2.49,2.18,7,2.17a9.7,9.7,0,0,0,6.81-2.28,7.91,7.91,0,0,0,2.48-6.1,7.82,7.82,0,0,0-2.48-6.2A10,10,0,0,0,407.67,231.05Z"/><rect class="cls-1" x="400" y="259.67" width="15.34" height="57.57"/><path class="cls-1" d="M470.2,289.93a19.49,19.49,0,0,0-5.73-4,50,50,0,0,0-8.74-3.15q-3.89-1.1-6.32-2a21.54,21.54,0,0,1-3.51-1.52,6.87,6.87,0,0,1-1.67-1.91,4.36,4.36,0,0,1-.6-2.23,4.91,4.91,0,0,1,.49-2.18,4.67,4.67,0,0,1,1.46-1.69,6.46,6.46,0,0,1,2.42-1,15.08,15.08,0,0,1,3.3-.32,13.19,13.19,0,0,1,4.53.92,31.75,31.75,0,0,1,5,2.39,22.19,22.19,0,0,1,4.43,3.43l8.21-9.25a28.13,28.13,0,0,0-6.32-4.73,32.67,32.67,0,0,0-7.78-3.1,33.52,33.52,0,0,0-8.58-1.09,27.12,27.12,0,0,0-11,2.18,20,20,0,0,0-8.05,6.09,14.56,14.56,0,0,0-3,9.14,17,17,0,0,0,1,6,14.23,14.23,0,0,0,3,4.78,22,22,0,0,0,6.15,4.41,46.37,46.37,0,0,0,9.29,3.32c2.38.65,4.33,1.25,5.89,1.8a13.11,13.11,0,0,1,3.18,1.46,4.21,4.21,0,0,1,1.94,3.7,5,5,0,0,1-.49,2.29,4.56,4.56,0,0,1-1.45,1.69,7.59,7.59,0,0,1-2.27,1.09,10.05,10.05,0,0,1-2.81.37,22.59,22.59,0,0,1-8.26-1.57,20.1,20.1,0,0,1-7.4-5.17l-9.61,8.27a25.43,25.43,0,0,0,10.1,7.4,36.08,36.08,0,0,0,14.09,2.61A27.67,27.67,0,0,0,462.69,316a19.64,19.64,0,0,0,8.1-6.53,16.06,16.06,0,0,0,3-9.52,18,18,0,0,0-.81-5.49A11.09,11.09,0,0,0,470.2,289.93Z"/><path class="cls-1" d="M528.46,261.09a20.83,20.83,0,0,0-10.85-2.61,21.43,21.43,0,0,0-9,2,24.07,24.07,0,0,0-7.45,5.17c-.43.44-.81.89-1.18,1.35V236.71H484.78v80.54h15.33v-34.5a10.64,10.64,0,0,1,.87-4.36,10.27,10.27,0,0,1,2.54-3.48,12,12,0,0,1,3.83-2.34,13.42,13.42,0,0,1,4.75-.81,10.59,10.59,0,0,1,5.51,1.08,7.41,7.41,0,0,1,3.24,3.81,17.37,17.37,0,0,1,1.08,6.53v34.07h15.33V282.09A34.12,34.12,0,0,0,535.05,269,16.09,16.09,0,0,0,528.46,261.09Z"/><path class="cls-1" d="M596.6,266.59a25.22,25.22,0,0,0-8.53-6,26.75,26.75,0,0,0-10.75-2.12,30,30,0,0,0-11.71,2.23,27.29,27.29,0,0,0-9.24,6.26,28.29,28.29,0,0,0-6,9.63A33.87,33.87,0,0,0,548.17,289,29.67,29.67,0,0,0,552,304.08a27.21,27.21,0,0,0,10.8,10.44,35.39,35.39,0,0,0,24.25,2.83,35.08,35.08,0,0,0,7.77-2.93,32.19,32.19,0,0,0,6.8-4.69l-7.23-10.33a26.22,26.22,0,0,1-6.81,4.13,19.17,19.17,0,0,1-6.91,1.2,20.69,20.69,0,0,1-9.55-2.07,14.49,14.49,0,0,1-6.22-5.93,16.6,16.6,0,0,1-1.73-4.84h40.72l.11-4.79a30.9,30.9,0,0,0-1.84-11.43A26.68,26.68,0,0,0,596.6,266.59Zm-27.21,7a16,16,0,0,1,8.15-1.9,12.19,12.19,0,0,1,5.72,1.35,12.5,12.5,0,0,1,4.27,3.65,10.11,10.11,0,0,1,1.89,5.33v.33h-26.1a15.59,15.59,0,0,1,1.1-3.32A12.1,12.1,0,0,1,569.39,273.55Z"/><path class="cls-1" d="M651,258.75a22.78,22.78,0,0,0-3.62-.27,17.13,17.13,0,0,0-8.26,2.12,21.67,21.67,0,0,0-6.8,5.72,23.37,23.37,0,0,0-1.94,2.84l-.28-9.49H615.34v57.58h15.44V287.53a13.68,13.68,0,0,1,.92-5.11,11.62,11.62,0,0,1,2.59-4,11.87,11.87,0,0,1,3.89-2.62,12.14,12.14,0,0,1,4.69-.92,15.09,15.09,0,0,1,3.84.49,18.89,18.89,0,0,1,3.08,1l4.1-16.87A10.9,10.9,0,0,0,651,258.75Z"/><path class="cls-1" d="M355.85,78l.21-.13-.07-.11Z"/><path class="cls-1" d="M401.62,57.89a51.8,51.8,0,0,0-45.57,27.4L342,110c-2.18,3.83-4.4,7.63-6.52,11.5a32.59,32.59,0,0,1-7.35,9.57,27.74,27.74,0,1,1,7.38-32.48,25.7,25.7,0,0,1,1.06,2.73l1.72-3L347,83.23q1.78-3.11,3.59-6.21a51.53,51.53,0,0,0-40.19-19.35c-28.56,0-51.8,23.41-51.8,52.2s23.24,52.19,51.8,52.19a51.63,51.63,0,0,0,45.52-27.42q5.07-8.77,10.16-17.56c3.15-5.44,6.16-11,9.27-16.41l1.86-3.25,1.15-2a27.65,27.65,0,1,1,9.6,38.7,27.83,27.83,0,0,1-7.18-6,57.16,57.16,0,0,1-5.69-9l-5.38,9.29-8.36,14.46a51.51,51.51,0,0,0,40.29,19.48c28.56,0,51.8-23.41,51.8-52.2s-23.24-52.19-51.8-52.19"/></svg>