<?xml version="1.0" encoding="UTF-8" standalone="no"?>
<!DOCTYPE svg PUBLIC "-//W3C//DTD SVG 1.1//EN" "http://www.w3.org/Graphics/SVG/1.1/DTD/svg11.dtd">
<svg width="100%" height="100%" viewBox="0 0 630 75" version="1.1" xmlns="http://www.w3.org/2000/svg" xmlns:xlink="http://www.w3.org/1999/xlink" xml:space="preserve" xmlns:serif="http://www.serif.com/" style="fill-rule:evenodd;clip-rule:evenodd;stroke-linejoin:round;stroke-miterlimit:2;">
    <g transform="matrix(1,0,0,1,-46.4947,-47.7832)">
        <path d="M251.43,98.27L242.37,77.73L235.55,77.73L226.72,98.51L218.64,71.45L206.57,71.45L221.02,115.21L229.4,115.21L238.77,92.13L248.36,115.21L256.82,115.21L271.51,71.45L259.45,71.45L251.43,98.27Z" style="fill:white;fill-rule:nonzero;"/>
    </g>
    <g transform="matrix(1,0,0,1,-46.4947,-47.7832)">
        <rect x="279.64" y="71.45" width="11.65" height="43.77" style="fill:white;"/>
    </g>
    <g transform="matrix(1,0,0,1,-46.4947,-47.7832)">
        <path d="M285.47,49.69C283.541,49.578 281.641,50.216 280.17,51.47C277.637,54.029 277.637,58.211 280.17,60.77C281.684,61.962 283.587,62.554 285.51,62.43C287.392,62.537 289.245,61.913 290.68,60.69C291.953,59.496 292.644,57.804 292.57,56.06C292.671,54.285 291.978,52.555 290.68,51.34C289.209,50.163 287.351,49.574 285.47,49.69Z" style="fill:white;fill-rule:nonzero;"/>
    </g>
    <g transform="matrix(1,0,0,1,-46.4947,-47.7832)">
        <path d="M337.06,72.52C334.543,71.116 331.69,70.424 328.81,70.52C326.46,70.519 324.137,71.023 322,72C319.877,72.963 317.957,74.321 316.34,76C315.97,76.38 315.63,76.78 315.34,77.18L315.14,71.5L303.86,71.5L303.86,115.26L315.52,115.26L315.52,89C315.505,87.864 315.727,86.736 316.17,85.69C316.612,84.665 317.271,83.747 318.1,83C318.947,82.238 319.931,81.645 321,81.25C322.156,80.827 323.379,80.616 324.61,80.63C326.053,80.524 327.497,80.811 328.79,81.46C329.923,82.108 330.796,83.13 331.26,84.35C331.859,85.947 332.137,87.646 332.08,89.35L332.08,115.24L343.74,115.24L343.74,88.49C343.846,85.078 343.271,81.678 342.05,78.49C341.079,76.012 339.327,73.916 337.06,72.52Z" style="fill:white;fill-rule:nonzero;"/>
    </g>
    <g transform="matrix(1,0,0,1,-46.4947,-47.7832)">
        <path d="M385.22,76.19C384.521,75.42 383.751,74.717 382.92,74.09C381.385,72.962 379.68,72.084 377.87,71.49C372.469,69.708 366.543,70.443 361.74,73.49C358.694,75.511 356.239,78.307 354.63,81.59C351.198,89.029 351.198,97.611 354.63,105.05C356.221,108.347 358.696,111.138 361.78,113.11C364.834,115.043 368.386,116.047 372,116C373.963,116.009 375.916,115.715 377.79,115.13C379.546,114.585 381.208,113.776 382.72,112.73C383.775,111.978 384.724,111.087 385.54,110.08L385.79,115.17L396.79,115.17L396.79,54L385.22,54L385.22,76.19ZM384.15,100.07C383.307,101.901 381.987,103.472 380.33,104.62C376.84,106.83 372.37,106.83 368.88,104.62C367.214,103.483 365.892,101.908 365.06,100.07C364.119,97.964 363.655,95.676 363.7,93.37C363.653,91.025 364.117,88.698 365.06,86.55C365.878,84.703 367.203,83.125 368.88,82C372.391,79.86 376.819,79.86 380.33,82C381.998,83.14 383.32,84.718 384.15,86.56C385.121,88.7 385.6,91.031 385.55,93.38C385.596,95.687 385.117,97.975 384.15,100.07Z" style="fill:white;fill-rule:nonzero;"/>
    </g>
    <g transform="matrix(1,0,0,1,-46.4947,-47.7832)">
        <path d="M448.76,66.61C449.077,65.928 449.632,65.384 450.32,65.08C451.145,64.721 452.04,64.55 452.94,64.58C453.626,64.594 454.304,64.733 454.94,64.99C455.691,65.297 456.405,65.686 457.07,66.15L460.6,57.47C459.308,56.34 457.82,55.455 456.21,54.86C454.493,54.202 452.669,53.863 450.83,53.86C448.209,53.801 445.622,54.473 443.36,55.8C441.26,57.044 439.533,58.83 438.36,60.97C437.162,63.236 436.557,65.768 436.6,68.33L436.6,72.47L430,72.47L430,82.47L436.57,82.47L436.57,115.15L448.22,115.15L448.22,82.53L457.58,82.53L457.58,72.53L448.22,72.53L448.22,69.13C448.209,68.26 448.393,67.399 448.76,66.61Z" style="fill:white;fill-rule:nonzero;"/>
    </g>
    <g transform="matrix(1,0,0,1,-46.4947,-47.7832)">
        <rect x="466.49" y="71.45" width="11.66" height="43.77" style="fill:white;"/>
    </g>
    <g transform="matrix(1,0,0,1,-46.4947,-47.7832)">
        <path d="M472.32,49.69C470.391,49.578 468.491,50.216 467.02,51.47C465.747,52.649 465.046,54.325 465.1,56.06C464.992,57.835 465.691,59.567 467,60.77C468.514,61.962 470.417,62.554 472.34,62.43C474.222,62.537 476.075,61.913 477.51,60.69C478.783,59.496 479.474,57.804 479.4,56.06C479.501,54.285 478.808,52.555 477.51,51.34C476.044,50.167 474.194,49.579 472.32,49.69Z" style="fill:white;fill-rule:nonzero;"/>
    </g>
    <g transform="matrix(1,0,0,1,-46.4947,-47.7832)">
        <path d="M519.85,94.44C518.59,93.189 517.117,92.173 515.5,91.44C513.365,90.419 511.139,89.602 508.85,89C506.85,88.46 505.28,88 504.05,87.52C503.127,87.214 502.233,86.826 501.38,86.36C500.872,85.958 500.442,85.466 500.11,84.91C499.814,84.396 499.659,83.813 499.66,83.22C499.651,82.645 499.778,82.076 500.03,81.56C500.285,81.046 500.667,80.605 501.14,80.28C501.693,79.894 502.319,79.625 502.98,79.49C503.802,79.322 504.641,79.241 505.48,79.25C506.662,79.277 507.83,79.514 508.93,79.95C510.242,80.442 511.507,81.051 512.71,81.77C513.94,82.489 515.072,83.363 516.08,84.37L522.32,77.37C520.896,75.948 519.276,74.736 517.51,73.77C515.65,72.735 513.663,71.945 511.6,71.42C509.472,70.861 507.28,70.582 505.08,70.59C502.216,70.56 499.377,71.122 496.74,72.24C494.34,73.238 492.236,74.836 490.63,76.88C489.095,78.863 488.283,81.313 488.33,83.82C488.311,85.371 488.575,86.914 489.11,88.37C489.611,89.72 490.38,90.955 491.37,92C492.712,93.361 494.278,94.481 496,95.31C498.261,96.401 500.63,97.249 503.07,97.84C504.87,98.34 506.36,98.84 507.54,99.2C508.393,99.464 509.207,99.84 509.96,100.32C510.918,100.925 511.483,101.998 511.44,103.13C511.457,103.731 511.33,104.328 511.07,104.87C510.818,105.386 510.435,105.827 509.96,106.15C509.439,106.525 508.857,106.806 508.24,106.98C507.545,107.182 506.824,107.28 506.1,107.27C503.95,107.266 501.82,106.859 499.82,106.07C497.672,105.205 495.75,103.86 494.2,102.14L486.89,108.43C488.944,110.914 491.583,112.849 494.57,114.06C497.97,115.436 501.612,116.116 505.28,116.06C508.317,116.112 511.33,115.505 514.11,114.28C516.571,113.195 518.696,111.468 520.26,109.28C521.764,107.169 522.556,104.632 522.52,102.04C522.532,100.624 522.326,99.214 521.91,97.86C521.507,96.572 520.801,95.399 519.85,94.44Z" style="fill:white;fill-rule:nonzero;"/>
    </g>
    <g transform="matrix(1,0,0,1,-46.4947,-47.7832)">
        <path d="M564.14,72.52C561.623,71.116 558.77,70.424 555.89,70.52C553.54,70.519 551.217,71.023 549.08,72C546.956,72.966 545.032,74.323 543.41,76C543.09,76.34 542.8,76.69 542.51,77L542.51,54L530.94,54L530.94,115.22L542.59,115.22L542.59,89C542.574,87.862 542.799,86.734 543.25,85.69C543.692,84.665 544.351,83.747 545.18,83C546.028,82.228 547.016,81.623 548.09,81.22C549.25,80.797 550.476,80.587 551.71,80.6C553.153,80.494 554.597,80.781 555.89,81.43C557.023,82.078 557.896,83.1 558.36,84.32C558.953,85.918 559.231,87.616 559.18,89.32L559.18,115.21L570.84,115.21L570.84,88.49C570.946,85.078 570.371,81.678 569.15,78.49C568.173,76.009 566.414,73.912 564.14,72.52Z" style="fill:white;fill-rule:nonzero;"/>
    </g>
    <g transform="matrix(1,0,0,1,-46.4947,-47.7832)">
        <path d="M616,76.7C614.177,74.749 611.966,73.199 609.51,72.15C606.927,71.055 604.145,70.506 601.34,70.54C598.29,70.503 595.264,71.078 592.44,72.23C589.805,73.32 587.422,74.94 585.44,76.99C583.43,79.094 581.868,81.584 580.85,84.31C579.722,87.31 579.163,90.495 579.2,93.7C579.095,97.714 580.062,101.684 582,105.2C583.938,108.564 586.784,111.315 590.21,113.14C594.017,115.138 598.271,116.136 602.57,116.04C604.616,116.036 606.653,115.787 608.64,115.3C610.693,114.795 612.678,114.042 614.55,113.06C616.42,112.102 618.158,110.905 619.72,109.5L614.23,101.64C612.672,102.945 610.925,104.007 609.05,104.79C607.37,105.409 605.591,105.718 603.8,105.7C601.286,105.763 598.794,105.225 596.53,104.13C594.541,103.133 592.896,101.562 591.81,99.62C591.18,98.467 590.734,97.221 590.49,95.93L621.49,95.93L621.57,92.29C621.659,89.334 621.184,86.388 620.17,83.61C619.256,81.051 617.838,78.702 616,76.7ZM595.26,82C597.164,80.983 599.303,80.486 601.46,80.56C602.97,80.532 604.464,80.875 605.81,81.56C607.087,82.225 608.195,83.172 609.05,84.33C609.909,85.514 610.409,86.92 610.49,88.38L610.49,88.63L590.65,88.63C590.836,87.763 591.114,86.918 591.48,86.11C592.287,84.384 593.607,82.948 595.26,82Z" style="fill:white;fill-rule:nonzero;"/>
    </g>
    <g transform="matrix(1,0,0,1,-46.4947,-47.7832)">
        <path d="M657.32,70.74C656.41,70.604 655.49,70.537 654.57,70.54C652.374,70.538 650.214,71.092 648.29,72.15C646.288,73.228 644.529,74.706 643.12,76.49C642.581,77.176 642.09,77.897 641.65,78.65L641.44,71.45L630.19,71.45L630.19,115.21L641.93,115.21L641.93,92.63C641.909,91.3 642.147,89.979 642.63,88.74C643.083,87.613 643.764,86.592 644.63,85.74C645.484,84.876 646.504,84.196 647.63,83.74C648.758,83.27 649.968,83.032 651.19,83.04C652.175,83.038 653.156,83.162 654.11,83.41C654.912,83.604 655.695,83.868 656.45,84.2L659.57,71.38C658.853,71.063 658.096,70.848 657.32,70.74Z" style="fill:white;fill-rule:nonzero;"/>
    </g>
    <g transform="matrix(1,0,0,1,-46.4947,-47.7832)">
        <path d="M140.94,52C129.028,52.029 118.057,58.63 112.45,69.14L103.63,84.6C102.26,87 100.88,89.38 99.55,91.79C98.408,94.059 96.851,96.094 94.96,97.79C91.825,100.451 87.844,101.913 83.732,101.913C74.214,101.913 66.382,94.081 66.382,84.563C66.382,75.045 74.214,67.213 83.732,67.213C90.561,67.213 96.782,71.246 99.57,77.48C99.823,78.037 100.043,78.608 100.23,79.19L101.31,77.33L106.77,67.89L109,64C102.804,56.319 93.448,51.845 83.579,51.845C65.663,51.845 50.919,66.589 50.919,84.505C50.919,102.422 65.663,117.165 83.579,117.165C95.574,117.165 106.64,110.558 112.33,100C114.45,96.33 116.57,92.68 118.68,89C120.68,85.59 122.54,82.15 124.48,78.74C124.87,78.06 125.26,77.38 125.64,76.74L126.36,75.49C129.523,70.47 135.056,67.417 140.988,67.417C150.474,67.417 158.278,75.222 158.278,84.707C158.278,94.192 150.474,101.997 140.988,101.997C137.96,101.997 134.984,101.201 132.36,99.69C130.659,98.696 129.137,97.421 127.86,95.92C126.498,94.152 125.309,92.256 124.31,90.26L121,96.09L115.76,105.09C121.926,112.6 131.147,116.96 140.863,116.96C158.681,116.96 173.343,102.298 173.343,84.48C173.343,66.691 158.729,52.042 140.94,52" style="fill:white;fill-rule:nonzero;"/>
    </g>
</svg>
